<?xml version="1.0" standalone="no"?>
<!DOCTYPE svg PUBLIC "-//W3C//DTD SVG 20010904//EN"
 "http://www.w3.org/TR/2001/REC-SVG-20010904/DTD/svg10.dtd">
<svg version="1.0" xmlns="http://www.w3.org/2000/svg"
 width="1200.000000pt" height="1200.000000pt" viewBox="0 0 1200.000000 1200.000000"
 preserveAspectRatio="xMidYMid meet">
<metadata>
Created by potrace 1.14, written by Peter Selinger 2001-2017
</metadata>
<g transform="translate(0.000000,1200.000000) scale(0.100000,-0.100000)"
fill="#000000" stroke="none">
<path d="M1463 10985 c-211 -46 -403 -240 -448 -453 -21 -96 -21 -768 0 -864
34 -163 154 -319 305 -398 141 -73 81 -70 1370 -70 1234 0 1200 1 1299 -49 56
-29 133 -106 162 -162 49 -96 49 -95 49 -899 0 -846 -1 -833 70 -970 56 -106
144 -194 250 -250 107 -55 182 -70 366 -70 146 0 154 -1 205 -28 43 -22 59
-38 81 -81 l28 -53 0 -452 c0 -511 3 -536 70 -666 56 -106 144 -194 250 -250
130 -67 155 -70 666 -70 l452 0 53 -28 c43 -22 59 -38 81 -81 27 -51 28 -59
28 -205 0 -184 15 -259 70 -366 56 -106 144 -194 250 -250 137 -71 124 -70
970 -70 804 0 803 0 899 -49 56 -29 133 -106 162 -162 50 -99 49 -65 49 -1299
0 -1289 -3 -1229 70 -1370 79 -151 235 -271 398 -305 96 -21 768 -21 864 0
222 47 421 251 457 471 9 51 11 1262 9 4639 l-3 4570 -24 60 c-33 83 -133 183
-216 216 l-60 24 -4585 2 c-3820 1 -4595 -1 -4647 -12z m8553 -931 c61 -45 69
-67 68 -177 0 -91 -4 -114 -37 -212 -71 -208 -220 -472 -340 -601 -147 -158
-378 -195 -562 -88 -47 27 -134 115 -162 164 -52 89 -70 205 -49 308 30 146
109 245 289 363 175 115 368 206 529 249 99 27 225 24 264 -6z"/>
</g>
</svg>
