<?xml version="1.0" encoding="utf-8"?>
<!-- Generator: Adobe Illustrator 28.0.0, SVG Export Plug-In . SVG Version: 6.00 Build 0)  -->
<svg version="1.1" id="Layer_2" xmlns="http://www.w3.org/2000/svg" xmlns:xlink="http://www.w3.org/1999/xlink" x="0px" y="0px"
	 viewBox="0 0 2533.3 500" style="enable-background:new 0 0 2533.3 500;" xml:space="preserve">
<style type="text/css">
	.st0{fill:#1F2F2F;}
	.st1{fill:#30454D;}
	.st2{fill:#203135;}
	.st3{fill:#6CD9DB;}
	.st4{fill:#FEDD58;}
	.st5{fill:#FEA12C;}
</style>
<g>
	<path class="st0" d="M606.7,60.5c2.3-2.3,4.7-4.8,7.3-7.3h44.9c11.1-10.5,23.3-19.2,36.6-26.1c13.3-6.9,27.3-12.3,41.9-16.3
		c14.6-3.9,29.5-6.7,44.6-8.3c15.1-1.7,30-2.5,44.6-2.5c2.6,0,5,0.1,7.3,0.2s4.7,0.2,7.3,0.2c1.3-0.3,2.6-0.5,3.9-0.5
		c1.3,0,2.6,0,3.9,0h7.3c2.6,0,5,0.1,7.3,0.2s4.7,0.2,7.3,0.2c1.3-0.3,2.6-0.5,3.9-0.5c1.3,0,2.6,0,3.9,0h7.3
		c29.3,0,59.3,3.3,90.2,10.1c30.9,6.7,59,17.5,84.4,32.2l-4.4,10.8h-44.9l-6.4,14.6h44.9l-31.2,75.1c-4.2-2.3-8.4-4.5-12.4-6.6
		c-4.1-2.1-8.2-4-12.4-5.6l-4.9,12.2c-4.2-2.3-8.4-4.5-12.4-6.6c-4.1-2.1-8.2-4-12.4-5.6l-4.9,12.2c-35.1-19.2-69.4-30.9-102.9-35.1
		c-5.5,1-11.2,2.5-17.1,4.4c-5.8,1.9-11.1,4.6-15.6,7.8c-4.6,3.3-8.3,7.3-11.2,11.9c-2.9,4.7-4.4,10.5-4.4,17.3
		c0,13,7.3,22.6,22,28.8c14.6,6.2,38.2,12.8,70.7,20c10.1,2,21.1,4.3,32.9,7.1c11.9,2.7,23.8,6,35.8,9.7c12,3.8,23.5,8.1,34.4,13.2
		c10.9,5,20.6,11,29,17.8h48.8c6.5,5.2,12.7,10.8,18.5,16.8c5.9,6,10.7,12.7,14.6,20.2h-48.3c6.5,12.7,10.7,26,12.7,40h-44.9
		c0.3,1.9,0.6,3.9,0.7,5.9c0.2,1.9,0.2,3.7,0.2,5.4h44.9c0,1.6,0.1,3.3,0.2,5.1c0.2,1.8,0.3,3.7,0.3,5.6c0,26.4-6.7,50.2-20,71.5
		c-13.3,21.3-31.2,38.5-53.7,51.5h48.3c-3.6,1.9-7.2,3.9-10.7,5.8c-3.6,1.9-7.5,3.7-11.7,5.4c-1.6,0.7-3.2,1.2-4.6,1.7
		c-1.5,0.5-3,1.1-4.6,1.7h-48.3c-30.3,11.7-66.2,17.6-107.8,17.6h-7.3c-1.3,0-2.6,0-3.9,0c-1.3,0-2.6-0.2-3.9-0.5
		c-1.6,0.4-4.1,0.5-7.3,0.5h-14.6c-1.3,0-2.6,0-3.9,0c-1.3,0-2.6-0.2-3.9-0.5c-1.6,0.4-4.1,0.5-7.3,0.5h-7.3
		c-42,0-83.1-5.9-123.4-17.6h48.3c-14-4.2-27.8-9.1-41.5-14.6h-48.3c-14-6.2-26.5-13.2-37.6-21l44.9-100c3.6,2.6,7.3,5,11.2,7.1
		c3.9,2.1,8,4.3,12.2,6.6l6.4-13.7c3.6,2.6,7.3,5,11.2,7.1c3.9,2.1,8,4.3,12.2,6.6l6.4-13.7c18.5,12.4,38.9,22.4,61.2,30
		c22.3,7.7,44.6,12.8,67.1,15.4c32.5-3.9,48.8-16.2,48.8-37.1c0-8.8-2.6-15.8-7.8-21h-44.9c-2-2.3-4.6-4.5-8.1-6.6
		c-3.4-2.1-6.6-3.7-9.5-4.6h44.9c-15-5.8-37.9-12.3-68.8-19.5c-30.6-6.5-56.3-13.3-77.1-20.5h48.3c-13-4.6-24.7-9.5-35.1-14.9
		c-10.4-5.4-20.6-12.8-30.7-22.2h-48.3l-10.2-10.2c-17.2-20.2-25.9-46.7-25.9-79.5c0-16.6,2.5-32.4,7.6-47.3s12.8-28.6,23.2-41
		h-44.9C602.2,65.3,604.5,62.8,606.7,60.5z"/>
	<path class="st0" d="M1129.7,9.7h489.8v43l-44.4,0.5v14.6h44.4v49.7h-146.8v128.3h48.8v37.1h-48.8v40h-44.9v11.2h44.9v133.7h48.8
		v14.6h-48.8v7.8H1277v-7.8h48.8v-14.6H1277V334.1h-44.4v-11.2h44.4v-40h48.8v-37.1H1277V117.5h-147.3V67.8h-44.9V52.7h44.9V9.7z"/>
	<path class="st0" d="M1683.8,9.7h195.6v43l-44.9,0.5v14.6h44.9v178h48.3v37.1h-48.3v40h-44.9v11.2h44.9v48.3h229.3v85.4h48.3v14.6
		h-48.3v7.8h-424.9v-7.8h48.3v-14.6h-48.3V334.1h-44.9v-11.2h44.9v-40h48.3v-37.1h-48.3v-178h-44.9V52.7h44.9V9.7z"/>
	<path class="st0" d="M2034.6,9.7h489.8v43l-44.4,0.5v14.6h44.4v49.7h-146.8v128.3h48.8v37.1h-48.8v40h-44.9v11.2h44.9v133.7h48.8
		v14.6h-48.8v7.8h-195.6v-7.8h48.8v-14.6h-48.8V334.1h-44.4v-11.2h44.4v-40h48.8v-37.1h-48.8V117.5h-147.3V67.8h-44.9V52.7h44.9V9.7
		z"/>
</g>
<g>
	<path class="st1" d="M480,0h-70H30C13.4,0,0,13.4,0,30v30c0,16.6,13.4,30,30,30h110c11,0,20,9,20,20v70c0,16.6,13.4,30,30,30h10
		c5.5,0,10,4.5,10,10v20v20c0,16.6,13.4,30,30,30h40c5.5,0,10,4.5,10,10v10c0,16.6,13.4,30,30,30h70c11,0,20,9,20,20v110
		c0,16.6,13.4,30,30,30h30c16.6,0,30-13.4,30-30V90V20C500,9,491,0,480,0z"/>
	<path class="st2" d="M294.3,92.6l-63.6,63.6c-3.9,3.9-10.2,3.9-14.1,0l-17.7-17.7c-3.9-3.9-3.9-10.2,0-14.1l63.6-63.6
		c7.8-7.8,20.5-7.8,28.3,0l3.5,3.5C302.1,72.1,302.1,84.7,294.3,92.6z"/>
	<path class="st2" d="M440.8,238.1l-63.6,63.6c-3.9,3.9-10.2,3.9-14.1,0l-17.7-17.7c-3.9-3.9-3.9-10.2,0-14.1l63.6-63.6
		c7.8-7.8,20.5-7.8,28.3,0l3.5,3.5C448.6,217.6,448.6,230.3,440.8,238.1z"/>
	<path class="st2" d="M351.4,116.8L402,66.2c3.9-3.9,10.2-3.9,14.1,0l17.7,17.7c3.9,3.9,3.9,10.2,0,14.1l-50.7,50.7
		c-7.8,7.8-20.5,7.8-28.3,0l-3.5-3.5C343.6,137.3,343.6,124.7,351.4,116.8z"/>
	<path class="st2" d="M411,470v-90h30c5.5,0,10,4.5,10,10v110h-10C424.4,500,411,486.6,411,470z"/>
	<path class="st3" d="M434.6,97.7c-8.8,8.8-23,8.8-31.8,0c-8.8-8.8-8.8-23,0-31.8c8.8-8.8,40.7-26.5,49.5-17.7
		C461,57,443.4,89,434.6,97.7z"/>
	<path class="st2" d="M30,90h90V60c0-5.5-4.5-10-10-10H0l0,10C0,76.6,13.4,90,30,90z"/>
	<g>
		<path class="st4" d="M130.2,271l-74.2,74.2c-3.9,3.9-10.2,3.9-14.1,0l-7.1-7.1c-3.9-3.9-3.9-10.2,0-14.1l74.2-74.2
			c3.9-3.9,10.2-3.9,14.1,0l7.1,7.1C134.1,260.7,134.1,267.1,130.2,271z"/>
		<path class="st4" d="M250.4,391.2l-74.2,74.2c-3.9,3.9-10.2,3.9-14.1,0l-7.1-7.1c-3.9-3.9-3.9-10.2,0-14.1l74.2-74.2
			c3.9-3.9,10.2-3.9,14.1,0l7.1,7.1C254.3,380.9,254.3,387.3,250.4,391.2z"/>
		<path class="st5" d="M101.7,419.3l-74.2,74.2c-3.9,3.9-10.2,3.9-14.1,0l-7.1-7.1c-3.9-3.9-3.9-10.2,0-14.1l74.2-74.2
			c3.9-3.9,10.2-3.9,14.1,0l7.1,7.1C105.6,409.1,105.6,415.4,101.7,419.3z"/>
		<path class="st5" d="M161.8,359.2l-14.1,14.1c-3.9,3.9-10.2,3.9-14.1,0l-7.1-7.1c-3.9-3.9-3.9-10.2,0-14.1l14.1-14.1
			c3.9-3.9,10.2-3.9,14.1,0l7.1,7.1C165.7,349,165.7,355.3,161.8,359.2z"/>
	</g>
</g>
</svg>
